<svg width="37" height="34" viewBox="0 0 37 34" fill="none" xmlns="http://www.w3.org/2000/svg">
<circle opacity="0.7" cx="11.5" cy="22.5" r="11.5" fill="#FBDB68"/>
<path d="M35.2569 10.0934C34.1909 8.94029 32.6757 8.31008 30.9929 8.31008H26.6015V5.84287C26.6015 5.40038 26.2395 5.03835 25.797 5.03835H5.80453C5.36204 5.03835 5 5.40038 5 5.84287V23.5357C5 23.9782 5.36204 24.3403 5.80453 24.3403H9.00922C9.27069 25.8286 10.5646 26.9617 12.1268 26.9617C13.6889 26.9617 14.9828 25.8286 15.2443 24.3403H25.797H27.5602C27.8217 25.8286 29.1157 26.9617 30.6778 26.9617C32.2399 26.9617 33.5338 25.8286 33.7953 24.3403H36.1955C36.638 24.3403 37 23.9782 37 23.5357V15.2223C36.9933 13.097 36.3966 11.3203 35.2569 10.0934ZM6.60905 6.6474H24.9925V9.11461V22.7379H15.1035C14.6677 21.5177 13.4944 20.6394 12.1268 20.6394C10.7591 20.6394 9.5858 21.5177 9.15001 22.7379H6.60905V6.6474ZM12.1268 25.3526C11.2686 25.3526 10.5713 24.6554 10.5713 23.7972C10.5713 22.939 11.2686 22.2418 12.1268 22.2418C12.9849 22.2418 13.6822 22.939 13.6822 23.7972C13.6822 24.6554 12.9849 25.3526 12.1268 25.3526ZM30.6778 25.3526C29.8196 25.3526 29.1224 24.6554 29.1224 23.7972C29.1224 22.939 29.8196 22.2418 30.6778 22.2418C31.5359 22.2418 32.2332 22.939 32.2332 23.7972C32.2332 24.6554 31.5359 25.3526 30.6778 25.3526ZM35.3842 22.7312H33.6545C33.2187 21.511 32.0455 20.6327 30.6778 20.6327C29.3101 20.6327 28.1368 21.511 27.701 22.7312H26.6082V9.91913H30.9996C33.7081 9.91913 35.3909 11.9506 35.3909 15.2223V22.7312H35.3842Z" fill="black"/>
</svg>
