<svg width="32" height="34" viewBox="0 0 32 34" fill="none" xmlns="http://www.w3.org/2000/svg">
<circle opacity="0.7" cx="11.5" cy="22.5" r="11.5" fill="#FBDB68"/>
<path d="M29.513 12.607C30.0924 12.0422 30.297 11.2133 30.047 10.4437C29.7969 9.67413 29.1442 9.12382 28.3434 9.0075L21.3415 7.99007C21.2041 7.97013 21.0853 7.88382 21.0238 7.75919L17.8925 1.4145C17.5344 0.688879 16.8093 0.238129 16.0001 0.238129C15.1909 0.238129 14.4658 0.688879 14.1077 1.4145L10.9764 7.75925C10.9149 7.88382 10.7961 7.97013 10.6586 7.99013L3.65686 9.0075C2.85611 9.12382 2.20342 9.67413 1.9533 10.4437C1.70317 11.2133 1.9078 12.0422 2.4873 12.607L7.55386 17.5457C7.6533 17.6427 7.69873 17.7824 7.67523 17.9193L6.47917 24.8928C6.34242 25.6904 6.66404 26.4812 7.31867 26.9568C7.97329 27.4326 8.82504 27.494 9.54117 27.1176L15.8037 23.8251C15.9267 23.7604 16.0735 23.7604 16.1966 23.8251L22.4592 27.1176C22.7707 27.2813 23.1078 27.3623 23.4432 27.3622C23.8789 27.3622 24.3117 27.2257 24.6815 26.9568C25.3362 26.4811 25.6579 25.6902 25.521 24.8928L24.325 17.9193C24.3015 17.7823 24.3469 17.6426 24.4464 17.5456L29.513 12.607ZM22.6612 18.2048L23.8572 25.1784C23.8972 25.4118 23.7532 25.5448 23.6894 25.5911C23.6255 25.6374 23.4544 25.7334 23.2449 25.6232L16.9822 22.3308C16.6748 22.1692 16.3375 22.0883 16.0002 22.0883C15.6629 22.0883 15.3256 22.1692 15.0182 22.3307L8.75567 25.6231C8.54605 25.7333 8.37498 25.6373 8.31117 25.591C8.24736 25.5447 8.10323 25.4116 8.14329 25.1783L9.33936 18.2048C9.45679 17.5201 9.22998 16.8218 8.73242 16.3369L3.66586 11.3982C3.4963 11.2328 3.53467 11.0405 3.55911 10.9655C3.58342 10.8904 3.66548 10.7123 3.8998 10.6783L10.9015 9.66082C11.5889 9.56094 12.183 9.12944 12.4905 8.50638L15.6218 2.16163C15.7266 1.94932 15.9214 1.92638 16.0003 1.92638C16.0791 1.92638 16.2739 1.94925 16.3787 2.16163V2.16169L19.51 8.50644C19.8175 9.1295 20.4115 9.561 21.0989 9.66088L28.1007 10.6783C28.335 10.7123 28.417 10.8905 28.4414 10.9656C28.4658 11.0406 28.5042 11.233 28.3346 11.3983L23.268 16.3369C22.7705 16.8218 22.5437 17.5201 22.6612 18.2048Z" fill="#3A3934"/>
<path d="M25.8614 1.41406C25.4842 1.14006 24.9564 1.22368 24.6824 1.60081L23.7863 2.83406C23.5123 3.21118 23.5959 3.73912 23.9731 4.01312C24.123 4.12193 24.2966 4.17437 24.4686 4.17437C24.7296 4.17437 24.987 4.05368 25.1521 3.82643L26.0482 2.59318C26.3222 2.216 26.2386 1.68806 25.8614 1.41406Z" fill="#3A3934"/>
<path d="M8.20999 2.82907L7.31393 1.59582C7.03999 1.21882 6.51212 1.1352 6.13487 1.40907C5.75774 1.68307 5.67412 2.21101 5.94812 2.58813L6.84418 3.82138C7.00937 4.04882 7.26674 4.16945 7.52787 4.16945C7.69993 4.16945 7.87356 4.11701 8.02331 4.00813C8.40043 3.7342 8.48406 3.20626 8.20999 2.82907Z" fill="#3A3934"/>
<path d="M3.09702 19.1768C2.95296 18.7335 2.47677 18.4908 2.03333 18.6349L0.583518 19.106C0.14008 19.2501 -0.102482 19.7264 0.0415804 20.1697C0.157455 20.5265 0.488393 20.7533 0.844205 20.7533C0.930643 20.7533 1.01858 20.7398 1.10527 20.7116L2.55508 20.2405C2.99846 20.0964 3.24108 19.6203 3.09702 19.1768Z" fill="#3A3934"/>
<path d="M16.0003 28.5491C15.5341 28.5491 15.1562 28.9271 15.1562 29.3933V30.9178C15.1562 31.3839 15.5341 31.7619 16.0003 31.7619C16.4665 31.7619 16.8444 31.3839 16.8444 30.9178V29.3933C16.8444 28.927 16.4666 28.5491 16.0003 28.5491Z" fill="#3A3934"/>
<path d="M31.4165 19.1072L29.9667 18.6361C29.5234 18.4921 29.047 18.7346 28.903 19.1781C28.7589 19.6215 29.0015 20.0977 29.4449 20.2418L30.8947 20.7129C30.9814 20.741 31.0693 20.7544 31.1557 20.7544C31.5116 20.7544 31.8425 20.5276 31.9584 20.1708C32.1025 19.7274 31.8598 19.2513 31.4165 19.1072Z" fill="#3A3934"/>
</svg>
