<?xml version="1.0" standalone="no"?>
<svg xmlns:xlink="http://www.w3.org/1999/xlink" id="wave" style="transform:rotate(0deg); transition: 0.3s" viewBox="0 0 1440 280" version="1.1" xmlns="http://www.w3.org/2000/svg"><defs><linearGradient id="sw-gradient-0" x1="0" x2="0" y1="1" y2="0"><stop stop-color="rgba(64, 112, 244, 1)" offset="0%"/><stop stop-color="rgba(255, 252.954, 248.432, 1)" offset="100%"/></linearGradient></defs><path style="transform:translate(0, 0px); opacity:1" fill="url(#sw-gradient-0)" d="M0,168L48,163.3C96,159,192,149,288,121.3C384,93,480,47,576,42C672,37,768,75,864,98C960,121,1056,131,1152,121.3C1248,112,1344,84,1440,65.3C1536,47,1632,37,1728,56C1824,75,1920,121,2016,116.7C2112,112,2208,56,2304,70C2400,84,2496,168,2592,168C2688,168,2784,84,2880,46.7C2976,9,3072,19,3168,23.3C3264,28,3360,28,3456,46.7C3552,65,3648,103,3744,116.7C3840,131,3936,121,4032,116.7C4128,112,4224,112,4320,116.7C4416,121,4512,131,4608,130.7C4704,131,4800,121,4896,102.7C4992,84,5088,56,5184,56C5280,56,5376,84,5472,116.7C5568,149,5664,187,5760,172.7C5856,159,5952,93,6048,88.7C6144,84,6240,140,6336,140C6432,140,6528,84,6624,88.7C6720,93,6816,159,6864,191.3L6912,224L6912,280L6864,280C6816,280,6720,280,6624,280C6528,280,6432,280,6336,280C6240,280,6144,280,6048,280C5952,280,5856,280,5760,280C5664,280,5568,280,5472,280C5376,280,5280,280,5184,280C5088,280,4992,280,4896,280C4800,280,4704,280,4608,280C4512,280,4416,280,4320,280C4224,280,4128,280,4032,280C3936,280,3840,280,3744,280C3648,280,3552,280,3456,280C3360,280,3264,280,3168,280C3072,280,2976,280,2880,280C2784,280,2688,280,2592,280C2496,280,2400,280,2304,280C2208,280,2112,280,2016,280C1920,280,1824,280,1728,280C1632,280,1536,280,1440,280C1344,280,1248,280,1152,280C1056,280,960,280,864,280C768,280,672,280,576,280C480,280,384,280,288,280C192,280,96,280,48,280L0,280Z"/><defs><linearGradient id="sw-gradient-1" x1="0" x2="0" y1="1" y2="0"><stop stop-color="rgba(64, 112, 244, 1)" offset="0%"/><stop stop-color="rgba(255, 255, 255, 1)" offset="100%"/></linearGradient></defs><path style="transform:translate(0, 50px); opacity:0.9" fill="url(#sw-gradient-1)" d="M0,112L48,121.3C96,131,192,149,288,158.7C384,168,480,168,576,149.3C672,131,768,93,864,88.7C960,84,1056,112,1152,112C1248,112,1344,84,1440,84C1536,84,1632,112,1728,144.7C1824,177,1920,215,2016,233.3C2112,252,2208,252,2304,252C2400,252,2496,252,2592,210C2688,168,2784,84,2880,60.7C2976,37,3072,75,3168,107.3C3264,140,3360,168,3456,177.3C3552,187,3648,177,3744,158.7C3840,140,3936,112,4032,107.3C4128,103,4224,121,4320,126C4416,131,4512,121,4608,135.3C4704,149,4800,187,4896,196C4992,205,5088,187,5184,191.3C5280,196,5376,224,5472,200.7C5568,177,5664,103,5760,70C5856,37,5952,47,6048,51.3C6144,56,6240,56,6336,88.7C6432,121,6528,187,6624,214.7C6720,243,6816,233,6864,228.7L6912,224L6912,280L6864,280C6816,280,6720,280,6624,280C6528,280,6432,280,6336,280C6240,280,6144,280,6048,280C5952,280,5856,280,5760,280C5664,280,5568,280,5472,280C5376,280,5280,280,5184,280C5088,280,4992,280,4896,280C4800,280,4704,280,4608,280C4512,280,4416,280,4320,280C4224,280,4128,280,4032,280C3936,280,3840,280,3744,280C3648,280,3552,280,3456,280C3360,280,3264,280,3168,280C3072,280,2976,280,2880,280C2784,280,2688,280,2592,280C2496,280,2400,280,2304,280C2208,280,2112,280,2016,280C1920,280,1824,280,1728,280C1632,280,1536,280,1440,280C1344,280,1248,280,1152,280C1056,280,960,280,864,280C768,280,672,280,576,280C480,280,384,280,288,280C192,280,96,280,48,280L0,280Z"/></svg>