<svg width="32" height="34" viewBox="0 0 32 34" fill="none" xmlns="http://www.w3.org/2000/svg">
<circle opacity="0.7" cx="11.5" cy="22.5" r="11.5" fill="#FBDB68"/>
<path d="M25.7391 22.2609H20.1739C18.256 22.2609 16.6957 23.8212 16.6957 25.7391V28.5217C16.6957 29.6723 15.7593 30.6087 14.6087 30.6087C13.4581 30.6087 12.5217 29.6723 12.5217 28.5217V19.4372C15.6473 19.0894 18.087 16.4341 18.087 13.2174V9.04348C18.087 8.65948 17.7753 8.34783 17.3913 8.34783H15.3043V0.695652C15.3043 0.311652 14.9927 0 14.6087 0C14.2247 0 13.913 0.311652 13.913 0.695652V8.34783H9.73913V0.695652C9.73913 0.311652 9.42748 0 9.04348 0C8.65948 0 8.34782 0.311652 8.34782 0.695652V8.34783H6.26087C5.87687 8.34783 5.56522 8.65948 5.56522 9.04348V13.2174C5.56522 16.4341 8.00487 19.0894 11.1304 19.4372V28.5217C11.1304 30.4397 12.6908 32 14.6087 32C16.5266 32 18.087 30.4397 18.087 28.5217V25.7391C18.087 24.5885 19.0233 23.6522 20.1739 23.6522H25.7391C26.1231 23.6522 26.4348 23.3405 26.4348 22.9565C26.4348 22.5725 26.1231 22.2609 25.7391 22.2609ZM11.8261 18.087C9.14087 18.087 6.95652 15.9026 6.95652 13.2174V9.73913H16.6957V13.2174C16.6957 15.9026 14.5113 18.087 11.8261 18.087Z" fill="#3A3934"/>
</svg>
