<svg width="32" height="34" viewBox="0 0 32 34" fill="none" xmlns="http://www.w3.org/2000/svg">
<circle opacity="0.7" cx="13.5" cy="22.5" r="11.5" fill="#FBDB68"/>
<path fill-rule="evenodd" clip-rule="evenodd" d="M8.36133 10.645C8.68921 10.7534 9.04273 10.5757 9.15088 10.2478C10.1321 7.28027 12.8926 5.28662 16.0203 5.28662C20.0088 5.28662 23.2539 8.53149 23.2539 12.5203C23.2539 15.603 21.873 17.4448 20.7637 18.9248C19.9565 20.0012 19.2595 20.9312 19.2595 22.0588C19.2595 22.1331 19.2585 22.2065 19.2568 22.2795H16.6453V20.8438C16.6453 20.4985 16.3655 20.2188 16.0203 20.2188C15.675 20.2188 15.3953 20.4985 15.3953 20.8438V22.2795H12.7834C12.7817 22.2065 12.7808 22.1331 12.7808 22.0588C12.7808 20.9309 12.0837 20.0012 11.2766 18.9246C10.4595 17.8345 9.53345 16.5989 9.07422 14.8433C8.98682 14.5093 8.64503 14.3093 8.31129 14.3967C7.97755 14.4839 7.77759 14.8257 7.865 15.1594C8.38624 17.1523 9.43433 18.5508 10.2766 19.6743C10.9773 20.6091 11.5308 21.3474 11.5308 22.0588C11.5308 22.3582 11.5435 22.6501 11.5681 22.9287V28.2153C11.5681 28.2322 11.5693 28.2485 11.5706 28.2649C11.571 28.2688 11.5708 28.2729 11.5713 28.2769C11.5735 28.3 11.5772 28.3225 11.5818 28.345V28.3455C11.7988 29.3635 12.3545 30.2893 13.147 30.9521C13.9546 31.6279 14.9751 32 16.0203 32C17.0654 32 18.0857 31.6279 18.8935 30.9521C19.6858 30.2893 20.2417 29.3635 20.4585 28.3455C20.4585 28.3452 20.4587 28.345 20.4587 28.3447C20.4634 28.3225 20.4668 28.3 20.4692 28.2769C20.4695 28.2729 20.4695 28.2688 20.4697 28.2649C20.4709 28.2483 20.4722 28.2319 20.4722 28.2151V22.9287C20.4968 22.6501 20.5098 22.3582 20.5098 22.0588C20.5098 21.3474 21.0632 20.6091 21.7639 19.6743C22.9202 18.1318 24.5039 16.0195 24.5039 12.5203C24.5039 7.84229 20.698 4.03662 16.0203 4.03662C12.3523 4.03662 9.115 6.375 7.96412 9.85547C7.85572 10.1831 8.0337 10.5366 8.36133 10.645ZM16.0203 30.75C14.7495 30.75 13.6035 29.9814 13.0605 28.8401H18.98C18.4368 29.9814 17.2908 30.75 16.0203 30.75ZM19.2224 27.5901H12.8181V26.1848H19.2224V27.5901ZM19.2224 24.9348H12.8181V23.5295H19.2224V24.9348Z" fill="#3A3934"/>
<path fill-rule="evenodd" clip-rule="evenodd" d="M16.0203 2.91528C16.3655 2.91528 16.6453 2.6355 16.6453 2.29028V0.625C16.6453 0.279785 16.3655 0 16.0203 0C15.675 0 15.3953 0.279785 15.3953 0.625V2.29028C15.3953 2.6355 15.675 2.91528 16.0203 2.91528Z" fill="#3A3934"/>
<path fill-rule="evenodd" clip-rule="evenodd" d="M4.125 13.1453H5.79028C6.1355 13.1453 6.41528 12.8655 6.41528 12.5203C6.41528 12.175 6.1355 11.8953 5.79028 11.8953H4.125C3.77979 11.8953 3.5 12.175 3.5 12.5203C3.5 12.8655 3.77979 13.1453 4.125 13.1453Z" fill="#3A3934"/>
<path fill-rule="evenodd" clip-rule="evenodd" d="M18.8818 13.783C18.8818 13.4377 18.6021 13.158 18.2568 13.158H13.7837C13.4385 13.158 13.1587 13.4377 13.1587 13.783C13.1587 14.1282 13.4385 14.408 13.7837 14.408H15.3953V15.8438C15.3953 16.189 15.675 16.4688 16.0203 16.4688C16.3655 16.4688 16.6453 16.189 16.6453 15.8438V14.408H18.2568C18.6021 14.408 18.8818 14.1282 18.8818 13.783Z" fill="#3A3934"/>
<path fill-rule="evenodd" clip-rule="evenodd" d="M8.34473 5.72852C8.4668 5.85059 8.62671 5.91162 8.78662 5.91162C8.94653 5.91162 9.10645 5.85059 9.22852 5.72852C9.47266 5.48438 9.47266 5.08862 9.22852 4.84473L8.05103 3.66724C7.80688 3.4231 7.41113 3.4231 7.16699 3.66724C6.9231 3.91113 6.9231 4.30688 7.16699 4.55103L8.34473 5.72852Z" fill="#3A3934"/>
<path fill-rule="evenodd" clip-rule="evenodd" d="M7.17798 21.9875C7.33789 21.9875 7.4978 21.9265 7.61987 21.8044L8.79736 20.627C9.0415 20.3828 9.0415 19.9873 8.79736 19.7432C8.55322 19.499 8.15747 19.499 7.91357 19.7432L6.73584 20.9207C6.49194 21.1648 6.49194 21.5605 6.73584 21.8044C6.85791 21.9265 7.01782 21.9875 7.17798 21.9875Z" fill="#3A3934"/>
<path fill-rule="evenodd" clip-rule="evenodd" d="M23.2539 5.91162C23.4138 5.91162 23.5737 5.85059 23.6958 5.72852L24.8733 4.55103C25.1174 4.30688 25.1174 3.91113 24.8733 3.66699C24.6294 3.42285 24.2336 3.4231 23.9895 3.66699L22.812 4.84448C22.5679 5.08862 22.5679 5.48438 22.8118 5.72852C22.9338 5.85059 23.094 5.91162 23.2539 5.91162Z" fill="#3A3934"/>
<path fill-rule="evenodd" clip-rule="evenodd" d="M23.2432 19.7432C22.999 19.9871 22.999 20.3828 23.2432 20.627L24.4207 21.8044C24.5427 21.9265 24.7026 21.9875 24.8625 21.9875C25.0225 21.9875 25.1824 21.9265 25.3044 21.8044C25.5486 21.5605 25.5486 21.1648 25.3044 20.9207L24.127 19.7432C23.8828 19.499 23.4871 19.499 23.2432 19.7432Z" fill="#3A3934"/>
<path fill-rule="evenodd" clip-rule="evenodd" d="M26.2502 13.1453H27.9155C28.2607 13.1453 28.5405 12.8655 28.5405 12.5203C28.5405 12.175 28.2607 11.8953 27.9155 11.8953H26.2502C25.905 11.8953 25.6252 12.175 25.6252 12.5203C25.6252 12.8655 25.905 13.1453 26.2502 13.1453Z" fill="#3A3934"/>
<path fill-rule="evenodd" clip-rule="evenodd" d="M16.0203 17.7188C15.676 17.7188 15.3953 17.9995 15.3953 18.3438C15.3953 18.688 15.676 18.9688 16.0203 18.9688C16.3645 18.9688 16.6453 18.688 16.6453 18.3438C16.6453 17.9995 16.3645 17.7188 16.0203 17.7188Z" fill="#3A3934"/>
<path fill-rule="evenodd" clip-rule="evenodd" d="M8.78662 12.5203C8.78662 12.176 8.50586 11.8953 8.16162 11.8953C7.81714 11.8953 7.53662 12.176 7.53662 12.5203C7.53662 12.8645 7.81714 13.1453 8.16162 13.1453C8.50586 13.1453 8.78662 12.8645 8.78662 12.5203Z" fill="#3A3934"/>
</svg>
